<?xml version="1.0" encoding="UTF-8"?>
<svg width="300px" height="300px" viewBox="0 0 300 300" version="1.1" xmlns="http://www.w3.org/2000/svg" xmlns:xlink="http://www.w3.org/1999/xlink">
    <!-- Generator: Sketch 62 (91390) - https://sketch.com -->
    <title>Artboard</title>
    <desc>Created with Sketch.</desc>
    <g id="Artboard" stroke="none" stroke-width="1" fill="none" fill-rule="evenodd">
        <g id="Arabic" transform="translate(5.208334, 80.075468)" fill="#FFFFFF" fill-rule="nonzero">
            <path d="M86.9999978,66.6894171 C87.0146645,63.8667505 84.7946645,61.6080839 83.1719979,59.9614173 C82.8319979,59.6134173 82.5186646,59.2974173 82.2466646,58.9947506 C79.135998,59.8654173 76.1919981,62.2560839 76.5106647,66.6014171 C76.7693314,68.7680837 78.6706647,71.1680836 81.8053313,71.565417 C81.8786646,71.5747503 81.9586646,71.581417 82.0399979,71.581417 C82.9426646,71.581417 84.1919979,71.0000836 85.2386645,70.073417 C86.4359978,69.0147504 87.1306645,67.7414171 86.9999978,66.6894171 M95.7813309,54.6187507 C95.7973309,58.124084 95.8133309,61.6294172 95.7413309,65.1320838 C95.5893309,72.4640836 89.8759977,78.3480835 82.4519979,78.8187501 C75.7613314,79.2280834 69.2293316,74.1094169 67.8959983,67.3854171 C66.5159983,60.4267506 70.7573315,53.4454174 77.5546647,51.4947508 C79.4413313,50.9534175 81.4346646,50.8627508 83.3639979,50.7720841 C83.8573312,50.7507508 84.3533312,50.7267508 84.8519979,50.6974175 L84.8519979,48.3000842 C78.527998,47.4800842 54.6719986,46.2467509 51.3479987,46.8307509 C50.9746654,46.8840842 49.9066654,47.8160842 49.1426654,49.0960842 C46.3773321,53.7400841 43.6066656,58.9920839 40.9253323,64.0707505 C38.5293323,68.609417 36.0519991,73.3040836 33.6013325,77.5200835 C33.1346658,78.3254168 32.7573325,79.0720834 32.4146658,79.7520834 C31.1573325,82.24275 30.0719992,84.39075 26.494666,84.9080833 C22.5733327,85.4654166 20.7359995,83.9360833 18.6119995,82.1534167 L17.9599995,81.6080834 C6.58133314,72.8014169 7.29866646,66.4014171 13.013333,56.2094173 C14.1786663,54.1307507 17.6399995,48.9520842 21.3026661,43.4680843 C24.3373327,38.9240844 27.454666,34.2574179 29.3679992,31.2027513 C22.8599994,31.761418 16.1013329,31.3067513 8.80533309,29.817418 C5.02399985,29.049418 3.99466654,27.0507514 2.68933324,24.5240848 C2.30799992,23.7867515 1.88533326,22.9627515 1.33466661,22.0560849 L0.311999967,20.3654182 L46.1453322,20.3654182 L34.4559991,40.6654177 C33.1879991,42.862751 31.9093325,45.054751 30.6293325,47.2480842 C27.9386659,51.8560841 25.1573327,56.6227507 22.5826661,61.2694172 C21.5826661,63.5774172 20.7239995,69.3107504 24.0053327,72.5760836 C27.3813326,68.137417 39.027999,47.2387509 42.5213322,39.1334178 C43.5053322,37.5227511 45.9853322,35.7134179 47.9746654,35.6854179 C63.2253317,35.4667512 90.0066644,37.3134178 90.1679977,37.3294178 C92.0906643,37.3134178 93.4319976,37.7507511 94.3893309,38.6334178 C95.4239976,39.5907511 95.8999976,41.0280844 95.8479976,43.0320843 C95.7453309,46.8867509 95.7626642,50.8187508 95.7813309,54.6187507" id="path202" transform="translate(48.081917, 52.694975) scale(-1, 1) rotate(-180.000000) translate(-48.081917, -52.694975) "></path>
            <path d="M145.14973,60.4869318 C143.972396,60.2655985 141.920396,60.6709318 140.335063,61.7949318 C139.376396,62.4749317 138.24973,63.6669317 138.336397,65.4255983 C138.516397,67.2415983 140.67773,69.6322649 142.85773,71.3122649 C145.071063,71.0722649 148.607063,69.0949316 149.383063,66.692265 C150.211063,64.120265 147.580396,61.9135984 145.14973,60.4869318 M195.899062,62.2442651 C193.544395,62.2322651 191.197729,62.2282651 188.848395,62.2602651 C185.461729,62.3095984 182.773729,64.220265 182.157729,67.0149316 C181.852395,68.3989316 184.988395,73.7535981 191.069729,77.037598 L191.512395,77.2922647 L191.647062,77.737598 C191.677729,77.8429314 191.775062,78.0922647 191.900395,78.4229313 C193.223062,81.8975979 193.392395,82.7962646 192.864395,83.4855979 L192.199062,84.3509312 L191.188395,83.8229324 C187.881729,82.0962646 183.523062,79.4882647 179.677729,77.1869314 C178.185729,76.2922647 176.772396,75.4482648 175.532396,74.7202648 C171.716396,72.4855982 169.193729,67.5509316 171.332396,62.3562651 C170.839062,62.3002651 170.248396,62.2309318 169.544396,62.1469318 C166.164396,61.7442651 160.193729,61.0389318 157.468396,61.3242651 L157.468396,61.6629318 C157.488396,67.6695983 157.507063,72.8575982 153.144396,76.6629314 C149.344396,79.9802646 147.568396,79.873598 143.28573,79.617598 C135.292397,79.1469313 129.463063,73.2415981 129.42573,65.5775983 C129.388397,58.2549319 134.88573,50.0975987 143.124396,49.6229321 C144.079063,49.5642654 145.03373,49.5215987 146.308396,49.4655987 L147.043063,49.4309321 C146.655063,47.4455988 146.143063,45.0695988 144.876396,43.2309322 C142.772396,40.177599 139.652396,40.4749323 134.743063,41.2175989 C134.131063,41.3082656 133.516397,41.4015989 132.903063,41.4829323 L129.259063,41.9695989 L131.800397,39.5629323 C135.116397,36.4229324 138.923063,34.8229324 142.995063,34.8229324 C144.528396,34.8229324 146.100396,35.0495991 147.695063,35.5055991 C155.963063,37.8709324 157.745729,42.5189322 157.644396,49.6922654 C164.588396,50.0989321 194.379062,51.4375987 197.816395,51.386932 C200.179062,51.3402654 207.321728,51.3215987 210.239061,60.7989318 L210.684395,62.2482651 L195.899062,62.2442651 Z" id="path206" transform="translate(169.971729, 59.586932) scale(-1, 1) rotate(-180.000000) translate(-169.971729, -59.586932) "></path>
            <path d="M114.831997,13.1677256 L114.831997,22.8637254 C114.831997,25.1197253 115.23733,30.7570585 115.70533,37.2823917 C116.81733,52.7663913 117.54533,63.9077243 116.74533,66.2610576 C116.47733,67.0490576 115.90933,67.6023909 115.098664,67.8637242 C112.915997,68.5637242 109.495997,66.7797243 106.761331,65.1410576 L106.217331,64.8157243 L106.214664,48.981058 C106.210664,35.1557251 106.206664,22.8290587 106.239997,7.63039241 C106.249331,3.87172583 108.435997,1.33305923 112.402664,0.482392584 C113.454664,0.259725923 114.463997,0.147725926 115.42133,0.147725926 C119.24533,0.147725926 122.26933,1.90239255 123.943997,5.18505913 L124.70933,6.73705909 L122.818664,6.74372576 C115.587997,6.77705909 114.83333,6.78105909 114.831997,13.1677256" id="path210" transform="translate(115.460688, 34.083862) scale(-1, 1) rotate(-180.000000) translate(-115.460688, -34.083862) "></path>
            <path d="M81.5363979,1.55684725 L81.5377313,1.55684725 C82.7830646,1.55684725 84.0297312,2.1235139 85.2403978,3.24084721 C86.9177311,4.78751384 88.4683978,7.4608471 88.4470644,8.40351375 L88.4337311,8.9381804 L87.9697311,9.27284706 C87.4443978,9.65151372 86.9270645,10.112847 86.4097311,10.5701804 C85.0550645,11.7701803 83.6550646,13.0115136 81.8963979,13.216847 C80.1057313,13.424847 78.3070647,12.8461803 77.0937314,11.6661803 C75.8550647,10.4581804 75.3750648,8.7741804 75.7737314,7.04484711 C76.2737314,4.8781805 79.0550647,1.55684725 81.5363979,1.55684725" id="path214" transform="translate(82.041959, 7.407690) scale(-1, 1) rotate(-180.000000) translate(-82.041959, -7.407690) "></path>
            <path d="M33.6926658,107.336531 C32.2326658,108.679197 30.7246659,110.071197 28.9139993,110.071197 C28.8993326,110.071197 28.8846659,110.071197 28.8699993,110.068531 C26.3913326,110.040531 23.5539994,106.803197 23.0139994,104.705864 C22.5753327,102.995197 23.0113327,101.305864 24.212666,100.069864 C25.272666,98.9765308 26.8179993,98.3565308 28.4286659,98.3565308 C28.6113326,98.3565308 28.7966659,98.3645308 28.9819993,98.3818642 C31.5779992,98.6125308 35.6939991,103.808531 35.7566657,105.011197 L35.7846657,105.581864 L35.2966658,105.945864 C34.7619991,106.344531 34.2286658,106.840531 33.6926658,107.336531" id="path218" transform="translate(29.315949, 104.213864) scale(-1, 1) rotate(-180.000000) translate(-29.315949, -104.213864) "></path>
            <path d="M13.4159996,109.882886 C11.6746663,109.658886 10.2879997,108.44422 8.94666642,107.269553 C8.4333331,106.82022 7.91999978,106.36822 7.39733312,105.993553 L6.93066647,105.66022 L6.9159998,105.122886 C6.8879998,103.957553 9.53199974,100.782887 10.9186664,99.5748866 C11.973333,98.6548866 12.861333,98.2242199 13.6986663,98.2242199 C13.741333,98.2242199 13.7826663,98.2242199 13.8266663,98.2268866 C16.2199996,98.3548866 19.0893328,101.430887 19.5679995,103.726886 C19.9346661,105.485553 19.3999995,107.19622 18.1039995,108.422886 C16.8866662,109.573553 15.1866663,110.09622 13.4159996,109.882886" id="path222" transform="translate(13.298428, 104.076909) scale(-1, 1) rotate(-180.000000) translate(-13.298428, -104.076909) "></path>
        </g>
        <g id="English" transform="translate(71.791666, 146.924532)" fill="#FFFFFF" fill-rule="nonzero">
            <path d="M221.729194,11.4173384 C221.503861,16.1760049 219.951861,18.3506715 216.718528,20.1933381 C214.529195,21.4426714 210.707861,18.6320048 210.701195,16.2746716 C210.690528,13.5946716 210.962528,11.6706717 212.613195,10.0000051 C215.715861,6.85733848 218.787861,9.64000507 221.729194,11.4173384" id="path226" transform="translate(216.215047, 14.538069) scale(-1, 1) rotate(-180.000000) translate(-216.215047, -14.538069) "></path>
            <path d="M216.969995,19.2825186 C215.463328,20.4545186 213.555328,21.3798519 211.813995,21.4331852 C203.780662,21.6811852 195.740662,21.6558519 187.704662,21.5651852 C184.775329,21.5318519 181.847329,21.0385186 178.936662,20.7571852 C176.281996,27.8025184 175.116662,34.5491849 175.671329,41.4371847 C176.031329,45.8931846 177.083329,50.4891845 178.672662,54.5025177 C180.467329,59.0291843 182.428662,59.3878509 186.105995,57.1531843 C190.157995,54.6918511 193.479328,51.1171845 194.997995,45.7038513 C195.963328,42.270518 197.248662,39.8718514 200.429995,39.3958514 C200.597995,52.6318511 194.555328,64.0385175 185.579329,68.0225174 C179.127329,70.885184 174.471329,68.6758507 170.949996,61.3078509 C167.607329,54.3105177 166.988662,46.6558513 167.632662,38.8705181 C168.164662,32.4238516 169.336662,26.0598518 170.279329,19.2638519 C167.345996,19.011852 164.493996,18.7651853 161.675329,18.523852 C161.829996,7.73718557 164.004663,6.22785227 175.752662,7.94518556 C180.552662,0.622519081 180.552662,0.622519081 184.344662,0.742519078 C184.323329,3.49318568 184.300662,6.24651894 184.275329,9.30251886 C193.316662,11.5105188 202.052662,13.6665188 211.153995,10.6385188 C212.285995,6.94785226 213.083328,2.79585236 217.075328,2.3371857 C223.016661,8.32651889 223.033994,14.5585187 216.969995,19.2825186" id="path230" transform="translate(191.600025, 34.974592) scale(-1, 1) rotate(-180.000000) translate(-191.600025, -34.974592) "></path>
            <path d="M33.3333325,62.7769546 C33.0386658,61.9102879 32.8079992,61.0462879 32.5853325,60.206288 C32.0639992,58.2476213 31.6146659,56.5529547 30.5533326,55.6329547 C26.5719993,52.1609548 22.0693328,49.1396216 17.7146662,46.2156216 L15.6853329,44.8516217 C14.8799996,44.304955 13.5719997,44.008955 11.9959997,44.008955 L11.9386664,44.008955 C10.9333331,44.012955 10.2106664,44.2702884 9.79066642,44.7702883 C9.3613331,45.280955 9.23466644,46.064955 9.41066643,47.1036216 C10.8346664,55.5022881 21.4706661,62.8716212 31.4053325,62.8716212 C32.0519992,62.8716212 32.6959992,62.8409546 33.3333325,62.7769546 M49.1039988,40.6796218 C48.2333321,41.8276218 47.4119988,42.9142884 46.4266655,42.9142884 C41.7533323,42.9169551 41.2666656,46.2676216 40.795999,49.5076216 C40.5653323,51.0969549 40.775999,52.8116215 40.9813323,54.4676214 C41.0546656,55.0502881 41.1253323,55.6356214 41.179999,56.2129547 C41.6946656,61.6969546 40.0786657,66.3182878 36.6266658,69.2289544 C33.0853325,72.2169543 27.8613326,73.0742876 22.3079994,71.5729543 C12.5306664,68.9369544 7.25466649,61.9342879 1.84266662,53.7329548 C-1.11866664,49.2476216 -0.123999997,42.2649551 4.1079999,37.8382885 C6.19866651,35.6502886 8.75066645,34.5382886 11.5559997,34.5382886 C13.193333,34.5382886 14.9159996,34.9169553 16.6826662,35.6822886 C20.4466662,37.3089552 24.0746661,39.1982885 27.914666,41.2009551 C29.5253326,42.0422884 31.1706659,42.9022884 32.8733325,43.7622884 C38.6453324,36.8529552 39.555999,36.1009552 45.5133322,36.5862886 C46.6439988,36.6782886 47.6946655,37.3342885 48.7119988,37.9689552 C49.1546654,38.2449552 49.6119988,38.5289552 50.0573321,38.7542885 L50.5333321,38.9942885 L50.1639987,39.3782885 C49.8159988,39.7409551 49.4546654,40.2169551 49.1039988,40.6796218" id="path234" transform="translate(25.336842, 53.417743) scale(-1, 1) rotate(-180.000000) translate(-25.336842, -53.417743) "></path>
            <path d="M106.942664,69.4394882 C106.178664,70.8768215 105.449331,72.0928215 104.278664,72.4114882 C103.577331,72.6034882 102.822664,72.4421548 101.979997,71.9208215 C99.9093308,70.6514882 99.2453309,68.3648216 100.109331,65.4874883 C100.898664,62.8554884 101.790664,60.2968218 102.734664,57.5901552 C103.093331,56.5608219 103.461331,55.5114886 103.829331,54.4328219 C95.7866643,51.2834887 90.4373311,53.152822 86.5159978,60.4594885 L86.2373312,60.9794884 L85.8413312,60.5394885 C79.8413313,53.868822 75.2279981,50.608822 69.9173316,49.2808221 C65.8879984,48.2754888 62.9573318,47.8434888 61.7746651,49.0101554 C60.4226652,50.3461554 60.9613318,54.0261553 62.2666651,59.5328218 C63.2279984,63.5781551 63.6253317,68.1034883 59.2986652,70.9781549 L59.0599985,71.1341549 L58.8266652,70.9674882 C52.965332,66.7634883 52.2946654,60.2274885 52.0866654,53.3341553 C51.9079987,47.3061555 53.4039987,42.6581556 56.4159986,39.8888223 C58.3359985,38.1261557 60.8346651,37.2141557 63.7133317,37.2168165 C64.2599984,37.2168165 64.8199984,37.247489 65.3919984,37.3141557 C70.1973316,37.8648224 75.0853315,39.7928223 79.2906647,41.5541556 C82.7946646,43.0208222 85.4919979,43.4101556 88.6039978,42.9101556 C95.5506643,41.7834889 101.482664,41.6888223 106.735997,42.6048222 C110.743997,43.3034889 113.507997,45.0928222 114.73333,47.7754888 C116.10533,50.780822 115.478664,54.6208219 112.919997,58.8794885 C110.827997,62.3661551 108.815997,65.9208217 106.942664,69.4394882" id="path238" transform="translate(83.757380, 54.853210) scale(-1, 1) rotate(-180.000000) translate(-83.757380, -54.853210) "></path>
            <path d="M129.100263,46.449286 C131.280263,50.1226192 132.52693,52.8879525 134.29493,55.0786191 C139.17493,61.1252856 141.053596,60.8066189 145.497596,53.7266191 C137.968263,46.4106193 136.57093,45.721286 129.100263,46.449286 M156.756263,41.5919528 C152.368263,43.5226194 152.053596,48.9866192 150.024263,52.9626191 C153.656263,61.1666189 147.668263,64.3039522 143.776263,67.9999521 C139.59093,71.9746187 135.113597,71.7772853 131.013597,67.7159521 C127.88693,64.6226188 124.95893,60.9906189 122.72293,56.998619 C119.50293,51.2506192 120.14693,44.877286 123.048264,39.1519528 C125.364264,34.5799529 131.389597,33.039953 136.99093,35.0612863 C139.076263,35.8119529 140.984263,37.4172862 143.092263,37.8506195 C144.74693,38.1919528 147.177596,38.0506195 148.236263,36.8666195 C151.49093,33.2226196 155.057596,32.831953 159.328263,33.8972863 C161.218929,38.2986195 159.862929,40.2252861 156.756263,41.5919528" id="path242" transform="translate(140.385533, 52.126976) scale(-1, 1) rotate(-180.000000) translate(-140.385533, -52.126976) "></path>
        </g>
    </g>
</svg>